<svg xmlns="http://www.w3.org/2000/svg" viewBox="0 0 64 64" width="64" height="64">
  <defs>
    <style>
      .paw-primary { fill: #1a472a; opacity: 0.9; }
      .paw-highlight { fill: #2d5a3d; opacity: 0.7; }
    </style>
  </defs>
  
  <!-- Drop shadow effect -->
  <ellipse cx="33" cy="42" rx="12" ry="16" fill="#000" opacity="0.1"/>
  <ellipse cx="21" cy="26" rx="5" ry="7" fill="#000" opacity="0.1"/>
  <ellipse cx="32" cy="22" rx="5" ry="7" fill="#000" opacity="0.1"/>
  <ellipse cx="43" cy="26" rx="5" ry="7" fill="#000" opacity="0.1"/>
  <ellipse cx="49" cy="38" rx="4" ry="6" fill="#000" opacity="0.1"/>
  
  <!-- Main paw pad -->
  <ellipse cx="32" cy="40" rx="12" ry="16" class="paw-primary"/>
  <ellipse cx="32" cy="36" rx="8" ry="10" class="paw-highlight"/>
  
  <!-- Toe pads -->
  <ellipse cx="20" cy="24" rx="5" ry="7" class="paw-primary"/>
  <ellipse cx="20" cy="21" rx="3" ry="4" class="paw-highlight"/>
  
  <ellipse cx="32" cy="20" rx="5" ry="7" class="paw-primary"/>
  <ellipse cx="32" cy="17" rx="3" ry="4" class="paw-highlight"/>
  
  <ellipse cx="44" cy="24" rx="5" ry="7" class="paw-primary"/>
  <ellipse cx="44" cy="21" rx="3" ry="4" class="paw-highlight"/>
  
  <ellipse cx="50" cy="36" rx="4" ry="6" class="paw-primary"/>
  <ellipse cx="50" cy="34" rx="2.5" ry="3.5" class="paw-highlight"/>
</svg>